<svg width="175" height="159" viewBox="0 0 175 159" fill="none" xmlns="http://www.w3.org/2000/svg">
<line x1="0.599312" y1="28.5933" x2="174.401" y2="28.5933" stroke="#CECECE" stroke-width="0.347603"/>
<line x1="0.599312" y1="44.583" x2="174.401" y2="44.583" stroke="#CECECE" stroke-width="0.347603"/>
<line x1="0.599312" y1="60.5728" x2="174.401" y2="60.5728" stroke="#CECECE" stroke-width="0.347603"/>
<line x1="0.599312" y1="76.5625" x2="174.401" y2="76.5625" stroke="#CECECE" stroke-width="0.347603"/>
<line x1="0.599312" y1="92.5523" x2="174.401" y2="92.5523" stroke="#797777" stroke-width="0.347603"/>
<line x1="0.599312" y1="108.542" x2="174.401" y2="108.542" stroke="#CECECE" stroke-width="0.347603"/>
<line x1="0.599312" y1="124.532" x2="174.401" y2="124.532" stroke="#CECECE" stroke-width="0.347603"/>
<g clip-path="url(#clip0_2001_78)">
<path opacity="0.1" d="M7.1748 79.6019C2.0114 80.3186 3.10321 80.8973 -0.0958939 82.3221V120.534H174.401V52.2706C174.401 52.2706 169.591 61.6033 165.821 61.2084C159.985 60.5969 162.523 55.9338 156.66 56.2861C152.301 56.5481 151.571 68.9055 145.318 68.5917C137.419 68.1952 140.522 62.0515 132.667 61.2084C127.151 60.6162 127.315 51.6218 121.761 51.4934C113.181 51.2951 111.973 43.9414 104.602 43.3329C87.2055 41.8968 90.6284 18.2857 85.6982 19.758C78.8099 21.815 87.6769 57.8667 70.7206 56.2861C66.4502 55.8881 64.6497 52.3951 60.3962 52.9183C55.1432 53.5644 55.577 59.8207 50.5081 61.2084C43.8821 63.0223 40.4147 54.9786 33.6401 56.2861C27.1504 57.5386 27.4839 66.2438 20.8437 66.2601C11.9013 66.2821 16.0106 78.3756 7.1748 79.6019Z" fill="#09C36A"/>
<path d="M-0.0958939 82.298C3.10321 80.8737 2.0114 80.2953 7.1748 79.5789C16.0106 78.353 11.9013 66.2642 20.8437 66.2422C27.4839 66.2259 27.1504 57.5241 33.6401 56.2721C40.4147 54.9651 43.8821 63.0056 50.5081 61.1924C55.577 59.8053 55.1432 53.5514 60.3962 52.9055C64.6496 52.3826 66.4502 55.8742 70.7206 56.2721C87.6769 57.852 78.1147 19.7581 85.6983 19.7581C91.3236 19.7581 87.2055 41.8883 104.602 43.3238C111.973 43.9321 113.181 51.283 121.761 51.4812C127.315 51.6095 127.151 60.6005 132.667 61.1924C140.522 62.0353 137.419 68.1766 145.318 68.5729C151.571 68.8866 152.301 56.5339 156.66 56.2721C162.523 55.9199 159.985 60.5811 165.821 61.1924C169.591 61.5872 174.401 52.2581 174.401 52.2581" stroke="#0DC269" stroke-width="1.29192" stroke-linecap="round"/>
</g>
<g clip-path="url(#clip1_2001_78)">
<path opacity="0.1" d="M7.1748 99.6549C2.0114 99.1806 3.10321 98.7976 -0.0958939 97.8546V72.565H174.401V117.743C174.401 117.743 169.591 111.567 165.821 111.828C159.985 112.233 162.523 115.319 156.66 115.086C152.301 114.912 151.571 106.734 145.318 106.942C137.419 107.204 140.522 111.27 132.667 111.828C127.151 112.22 127.315 118.173 121.761 118.258C113.181 118.389 111.973 123.256 104.602 123.659C87.2055 124.609 90.6284 140.235 85.6982 139.261C78.8099 137.9 87.6769 114.04 70.7206 115.086C66.4502 115.349 64.6497 117.661 60.3962 117.315C55.1432 116.887 55.577 112.747 50.5081 111.828C43.8821 110.628 40.4147 115.951 33.6401 115.086C27.1504 114.257 27.4839 108.496 20.8437 108.485C11.9013 108.47 16.0106 100.466 7.1748 99.6549Z" fill="#ADADAD" stroke="#E0DBDB" stroke-width="1.29192" stroke-linecap="round"/>
<path d="M-0.0958939 97.5924C3.10321 98.5423 2.0114 98.9281 7.1748 99.4059C16.0106 100.224 11.9013 108.286 20.8437 108.301C27.4839 108.312 27.1504 114.116 33.6401 114.951C40.4147 115.823 43.8821 110.46 50.5081 111.669C55.577 112.594 55.1432 116.766 60.3962 117.196C64.6496 117.545 66.4502 115.216 70.7206 114.951C87.6769 113.897 78.1147 139.305 85.6983 139.305C91.3236 139.305 87.2055 124.544 104.602 123.587C111.973 123.181 113.181 118.278 121.761 118.146C127.315 118.061 127.151 112.064 132.667 111.669C140.522 111.107 137.419 107.011 145.318 106.747C151.571 106.537 152.301 114.776 156.66 114.951C162.523 115.186 159.985 112.077 165.821 111.669C169.591 111.406 174.401 117.628 174.401 117.628" stroke="#E0DBDB" stroke-width="1.29192" stroke-linecap="round"/>
</g>
<rect x="94.4521" y="12.7773" width="69.7226" height="24.4281" rx="2.78082" fill="#252525"/>
<path d="M102.358 20.231C102.331 20.0058 102.223 19.831 102.034 19.7066C101.844 19.5822 101.611 19.52 101.336 19.52C101.135 19.52 100.958 19.5526 100.807 19.6177C100.658 19.6829 100.541 19.7725 100.456 19.8866C100.373 20.0006 100.332 20.1302 100.332 20.2754C100.332 20.3969 100.361 20.5013 100.418 20.5887C100.478 20.6746 100.553 20.7465 100.645 20.8042C100.737 20.8605 100.833 20.9072 100.934 20.9442C101.035 20.9797 101.127 21.0086 101.212 21.0309L101.674 21.1553C101.792 21.1864 101.924 21.2293 102.069 21.2841C102.216 21.339 102.356 21.4138 102.489 21.5086C102.624 21.6019 102.735 21.7219 102.822 21.8685C102.91 22.0152 102.954 22.1951 102.954 22.4084C102.954 22.6543 102.889 22.8765 102.76 23.075C102.633 23.2735 102.446 23.4312 102.2 23.5483C101.956 23.6653 101.659 23.7238 101.309 23.7238C100.983 23.7238 100.701 23.6712 100.463 23.566C100.226 23.4609 100.039 23.3142 99.9029 23.1261C99.7681 22.938 99.6918 22.7195 99.674 22.4706H100.243C100.258 22.6425 100.315 22.7847 100.416 22.8972C100.518 23.0083 100.647 23.0913 100.803 23.1461C100.96 23.1994 101.129 23.2261 101.309 23.2261C101.52 23.2261 101.709 23.192 101.876 23.1239C102.043 23.0543 102.176 22.958 102.274 22.835C102.371 22.7106 102.42 22.5654 102.42 22.3995C102.42 22.2485 102.378 22.1255 102.294 22.0307C102.209 21.9359 102.098 21.8589 101.96 21.7996C101.823 21.7404 101.674 21.6885 101.514 21.6441L100.954 21.4841C100.598 21.3819 100.317 21.236 100.109 21.0464C99.9021 20.8568 99.7984 20.6087 99.7984 20.3021C99.7984 20.0473 99.8673 19.8251 100.005 19.6355C100.144 19.4444 100.331 19.2963 100.565 19.1911C100.8 19.0845 101.063 19.0311 101.354 19.0311C101.647 19.0311 101.908 19.0837 102.136 19.1889C102.364 19.2926 102.545 19.4348 102.678 19.6155C102.813 19.7962 102.884 20.0014 102.891 20.231H102.358ZM105.939 22.2485V20.231H106.464V23.6438H105.939V23.0661H105.904C105.824 23.2394 105.699 23.3868 105.53 23.5083C105.361 23.6282 105.148 23.6882 104.89 23.6882C104.677 23.6882 104.488 23.6416 104.322 23.5483C104.156 23.4535 104.025 23.3113 103.931 23.1217C103.836 22.9306 103.788 22.6899 103.788 22.3995V20.231H104.313V22.364C104.313 22.6128 104.382 22.8113 104.522 22.9595C104.662 23.1076 104.842 23.1816 105.059 23.1816C105.19 23.1816 105.322 23.1483 105.457 23.0817C105.593 23.015 105.707 22.9128 105.799 22.775C105.893 22.6373 105.939 22.4618 105.939 22.2485ZM107.495 23.6438V19.0934H108.019V20.7731H108.064C108.102 20.7139 108.156 20.6383 108.224 20.5465C108.293 20.4532 108.393 20.3702 108.522 20.2976C108.652 20.2236 108.828 20.1865 109.05 20.1865C109.338 20.1865 109.591 20.2584 109.81 20.4021C110.029 20.5457 110.201 20.7494 110.324 21.0131C110.446 21.2767 110.508 21.5878 110.508 21.9463C110.508 22.3077 110.446 22.621 110.324 22.8861C110.201 23.1498 110.03 23.3542 109.812 23.4994C109.595 23.6431 109.344 23.7149 109.059 23.7149C108.84 23.7149 108.665 23.6786 108.533 23.606C108.401 23.532 108.299 23.4483 108.228 23.355C108.157 23.2602 108.102 23.1816 108.064 23.1194H108.002V23.6438H107.495ZM108.011 21.9374C108.011 22.1951 108.048 22.4225 108.124 22.6195C108.199 22.815 108.31 22.9683 108.455 23.0794C108.6 23.1891 108.778 23.2439 108.988 23.2439C109.207 23.2439 109.39 23.1861 109.537 23.0706C109.685 22.9535 109.796 22.7965 109.87 22.5995C109.946 22.401 109.984 22.1803 109.984 21.9374C109.984 21.6974 109.947 21.4812 109.872 21.2886C109.8 21.0945 109.69 20.9412 109.541 20.8287C109.395 20.7146 109.21 20.6576 108.988 20.6576C108.775 20.6576 108.596 20.7116 108.45 20.8198C108.305 20.9264 108.196 21.076 108.122 21.2686C108.048 21.4597 108.011 21.6826 108.011 21.9374ZM113.727 20.9953L113.256 21.1286C113.227 21.0501 113.183 20.9738 113.125 20.8998C113.069 20.8242 112.992 20.762 112.894 20.7131C112.796 20.6642 112.671 20.6398 112.519 20.6398C112.31 20.6398 112.136 20.6879 111.997 20.7842C111.859 20.879 111.79 20.9997 111.79 21.1464C111.79 21.2767 111.837 21.3797 111.932 21.4552C112.027 21.5308 112.175 21.5937 112.377 21.6441L112.883 21.7685C113.188 21.8426 113.416 21.9559 113.565 22.1085C113.715 22.2596 113.79 22.4543 113.79 22.6928C113.79 22.8884 113.733 23.0631 113.621 23.2172C113.51 23.3712 113.354 23.4927 113.154 23.5816C112.954 23.6705 112.722 23.7149 112.457 23.7149C112.108 23.7149 111.82 23.6394 111.592 23.4883C111.364 23.3372 111.22 23.1165 111.159 22.8261L111.657 22.7017C111.704 22.8854 111.794 23.0232 111.926 23.115C112.059 23.2068 112.233 23.2527 112.448 23.2527C112.692 23.2527 112.886 23.2009 113.03 23.0972C113.175 22.992 113.248 22.8661 113.248 22.7195C113.248 22.601 113.206 22.5017 113.123 22.4218C113.04 22.3403 112.913 22.2796 112.741 22.2396L112.172 22.1062C111.86 22.0322 111.63 21.9174 111.483 21.7619C111.338 21.6048 111.266 21.4086 111.266 21.1731C111.266 20.9805 111.32 20.8101 111.428 20.662C111.537 20.5139 111.686 20.3976 111.874 20.3132C112.064 20.2288 112.279 20.1865 112.519 20.1865C112.856 20.1865 113.122 20.2606 113.314 20.4087C113.508 20.5568 113.646 20.7524 113.727 20.9953ZM115.965 23.7149C115.646 23.7149 115.37 23.6394 115.139 23.4883C114.908 23.3372 114.73 23.1291 114.606 22.8639C114.481 22.5988 114.419 22.2959 114.419 21.9552C114.419 21.6085 114.483 21.3027 114.61 21.0375C114.739 20.7709 114.918 20.5628 115.148 20.4132C115.379 20.2621 115.648 20.1865 115.957 20.1865C116.197 20.1865 116.413 20.231 116.605 20.3198C116.798 20.4087 116.956 20.5331 117.079 20.6931C117.202 20.8531 117.278 21.0397 117.307 21.253H116.783C116.743 21.0975 116.654 20.9598 116.517 20.8398C116.38 20.7183 116.197 20.6576 115.965 20.6576C115.761 20.6576 115.582 20.7109 115.428 20.8176C115.275 20.9227 115.156 21.0716 115.07 21.2642C114.986 21.4552 114.943 21.6796 114.943 21.9374C114.943 22.201 114.985 22.4306 115.068 22.6262C115.152 22.8217 115.271 22.9735 115.423 23.0817C115.577 23.1898 115.758 23.2439 115.965 23.2439C116.102 23.2439 116.225 23.2202 116.337 23.1728C116.448 23.1254 116.542 23.0572 116.619 22.9683C116.696 22.8795 116.751 22.7728 116.783 22.6484H117.307C117.278 22.8498 117.205 23.0313 117.088 23.1928C116.972 23.3527 116.819 23.4801 116.628 23.5749C116.438 23.6682 116.217 23.7149 115.965 23.7149ZM118.074 23.6438V20.231H118.581V20.7465H118.616C118.678 20.5776 118.791 20.4406 118.954 20.3354C119.117 20.2302 119.301 20.1776 119.505 20.1776C119.543 20.1776 119.592 20.1784 119.649 20.1799C119.707 20.1813 119.751 20.1836 119.78 20.1865V20.7198C119.763 20.7153 119.722 20.7087 119.658 20.6998C119.596 20.6894 119.53 20.6842 119.461 20.6842C119.295 20.6842 119.146 20.719 119.016 20.7887C118.887 20.8568 118.785 20.9516 118.71 21.0731C118.635 21.1931 118.598 21.3301 118.598 21.4841V23.6438H118.074ZM120.402 23.6438V20.231H120.926V23.6438H120.402ZM120.669 19.6622C120.566 19.6622 120.478 19.6274 120.404 19.5577C120.332 19.4881 120.295 19.4044 120.295 19.3067C120.295 19.2089 120.332 19.1252 120.404 19.0556C120.478 18.986 120.566 18.9512 120.669 18.9512C120.771 18.9512 120.858 18.986 120.931 19.0556C121.005 19.1252 121.042 19.2089 121.042 19.3067C121.042 19.4044 121.005 19.4881 120.931 19.5577C120.858 19.6274 120.771 19.6622 120.669 19.6622ZM121.958 23.6438V19.0934H122.482V20.7731H122.527C122.565 20.7139 122.619 20.6383 122.687 20.5465C122.756 20.4532 122.856 20.3702 122.984 20.2976C123.115 20.2236 123.291 20.1865 123.513 20.1865C123.801 20.1865 124.054 20.2584 124.273 20.4021C124.492 20.5457 124.663 20.7494 124.786 21.0131C124.909 21.2767 124.971 21.5878 124.971 21.9463C124.971 22.3077 124.909 22.621 124.786 22.8861C124.663 23.1498 124.493 23.3542 124.275 23.4994C124.058 23.6431 123.807 23.7149 123.522 23.7149C123.303 23.7149 123.127 23.6786 122.996 23.606C122.864 23.532 122.762 23.4483 122.691 23.355C122.62 23.2602 122.565 23.1816 122.527 23.1194H122.465V23.6438H121.958ZM122.473 21.9374C122.473 22.1951 122.511 22.4225 122.587 22.6195C122.662 22.815 122.773 22.9683 122.918 23.0794C123.063 23.1891 123.241 23.2439 123.451 23.2439C123.67 23.2439 123.853 23.1861 124 23.0706C124.148 22.9535 124.259 22.7965 124.333 22.5995C124.409 22.401 124.446 22.1803 124.446 21.9374C124.446 21.6974 124.409 21.4812 124.335 21.2886C124.263 21.0945 124.152 20.9412 124.004 20.8287C123.858 20.7146 123.673 20.6576 123.451 20.6576C123.238 20.6576 123.058 20.7116 122.913 20.8198C122.768 20.9264 122.659 21.076 122.584 21.2686C122.51 21.4597 122.473 21.6826 122.473 21.9374ZM127.204 23.7149C126.875 23.7149 126.591 23.6423 126.353 23.4972C126.116 23.3505 125.933 23.1461 125.804 22.8839C125.677 22.6202 125.613 22.3136 125.613 21.964C125.613 21.6145 125.677 21.3064 125.804 21.0397C125.933 20.7716 126.112 20.5628 126.342 20.4132C126.573 20.2621 126.842 20.1865 127.15 20.1865C127.328 20.1865 127.504 20.2162 127.677 20.2754C127.85 20.3347 128.008 20.4309 128.15 20.5643C128.293 20.6961 128.406 20.8709 128.49 21.0886C128.575 21.3064 128.617 21.5745 128.617 21.8929V22.1151H125.986V21.6619H128.084C128.084 21.4693 128.045 21.2975 127.968 21.1464C127.893 20.9953 127.784 20.8761 127.644 20.7887C127.505 20.7013 127.34 20.6576 127.15 20.6576C126.942 20.6576 126.761 20.7094 126.608 20.8131C126.457 20.9153 126.341 21.0486 126.259 21.213C126.178 21.3775 126.137 21.5537 126.137 21.7419V22.044C126.137 22.3018 126.182 22.5203 126.271 22.6995C126.361 22.8772 126.486 23.0128 126.646 23.1061C126.806 23.1979 126.992 23.2439 127.204 23.2439C127.342 23.2439 127.466 23.2246 127.577 23.1861C127.69 23.1461 127.787 23.0868 127.868 23.0083C127.95 22.9283 128.013 22.8291 128.057 22.7106L128.564 22.8528C128.51 23.0246 128.421 23.1757 128.295 23.3061C128.169 23.4349 128.013 23.5357 127.828 23.6082C127.643 23.6793 127.435 23.7149 127.204 23.7149ZM131.832 20.9953L131.361 21.1286C131.331 21.0501 131.288 20.9738 131.23 20.8998C131.174 20.8242 131.097 20.762 130.999 20.7131C130.901 20.6642 130.776 20.6398 130.623 20.6398C130.414 20.6398 130.24 20.6879 130.101 20.7842C129.963 20.879 129.895 20.9997 129.895 21.1464C129.895 21.2767 129.942 21.3797 130.037 21.4552C130.132 21.5308 130.28 21.5937 130.481 21.6441L130.988 21.7685C131.293 21.8426 131.52 21.9559 131.67 22.1085C131.819 22.2596 131.894 22.4543 131.894 22.6928C131.894 22.8884 131.838 23.0631 131.725 23.2172C131.614 23.3712 131.459 23.4927 131.259 23.5816C131.059 23.6705 130.826 23.7149 130.561 23.7149C130.213 23.7149 129.925 23.6394 129.697 23.4883C129.469 23.3372 129.324 23.1165 129.263 22.8261L129.761 22.7017C129.809 22.8854 129.898 23.0232 130.03 23.115C130.163 23.2068 130.337 23.2527 130.552 23.2527C130.797 23.2527 130.991 23.2009 131.134 23.0972C131.279 22.992 131.352 22.8661 131.352 22.7195C131.352 22.601 131.311 22.5017 131.228 22.4218C131.145 22.3403 131.017 22.2796 130.845 22.2396L130.277 22.1062C129.964 22.0322 129.735 21.9174 129.588 21.7619C129.443 21.6048 129.37 21.4086 129.37 21.1731C129.37 20.9805 129.424 20.8101 129.532 20.662C129.642 20.5139 129.791 20.3976 129.979 20.3132C130.169 20.2288 130.383 20.1865 130.623 20.1865C130.961 20.1865 131.226 20.2606 131.419 20.4087C131.613 20.5568 131.751 20.7524 131.832 20.9953Z" fill="white"/>
<path d="M150.379 19.0934V23.6438H149.828V19.6711H149.801L148.69 20.4087V19.8488L149.828 19.0934H150.379ZM151.688 23.6438V23.2439L153.19 21.5997C153.366 21.4071 153.511 21.2397 153.625 21.0975C153.739 20.9538 153.824 20.819 153.879 20.6931C153.935 20.5657 153.963 20.4324 153.963 20.2932C153.963 20.1332 153.924 19.9947 153.847 19.8777C153.772 19.7607 153.668 19.6703 153.536 19.6066C153.405 19.5429 153.256 19.5111 153.092 19.5111C152.917 19.5111 152.765 19.5474 152.634 19.62C152.505 19.6911 152.405 19.791 152.334 19.9199C152.265 20.0488 152.23 20.1999 152.23 20.3732H151.706C151.706 20.1065 151.767 19.8725 151.89 19.6711C152.013 19.4696 152.18 19.3126 152.392 19.2C152.605 19.0874 152.845 19.0311 153.11 19.0311C153.376 19.0311 153.613 19.0874 153.819 19.2C154.024 19.3126 154.186 19.4644 154.303 19.6555C154.42 19.8466 154.478 20.0591 154.478 20.2932C154.478 20.4606 154.448 20.6242 154.387 20.7842C154.328 20.9427 154.224 21.1197 154.076 21.3153C153.93 21.5093 153.726 21.7463 153.465 22.0263L152.443 23.1194V23.155H154.558V23.6438H151.688ZM156.987 23.706C156.8 23.703 156.614 23.6675 156.427 23.5994C156.24 23.5312 156.07 23.4164 155.916 23.255C155.762 23.092 155.638 22.8721 155.545 22.5951C155.452 22.3166 155.405 21.967 155.405 21.5463C155.405 21.1434 155.443 20.7864 155.518 20.4754C155.594 20.1628 155.703 19.8999 155.847 19.6866C155.991 19.4718 156.164 19.3089 156.367 19.1978C156.571 19.0867 156.802 19.0311 157.058 19.0311C157.313 19.0311 157.539 19.0823 157.738 19.1845C157.938 19.2852 158.101 19.4259 158.227 19.6066C158.353 19.7873 158.434 19.9955 158.471 20.231H157.929C157.879 20.0266 157.781 19.857 157.636 19.7222C157.491 19.5874 157.298 19.52 157.058 19.52C156.706 19.52 156.428 19.6733 156.225 19.9799C156.023 20.2865 155.922 20.7168 155.92 21.2708H155.956C156.039 21.1449 156.137 21.0375 156.251 20.9486C156.367 20.8583 156.494 20.7887 156.634 20.7398C156.773 20.6909 156.92 20.6665 157.076 20.6665C157.337 20.6665 157.575 20.7316 157.791 20.862C158.008 20.9909 158.181 21.1694 158.311 21.3975C158.442 21.6241 158.507 21.8841 158.507 22.1773C158.507 22.4588 158.444 22.7165 158.318 22.9506C158.192 23.1831 158.015 23.3683 157.787 23.506C157.56 23.6423 157.294 23.709 156.987 23.706ZM156.987 23.2172C157.174 23.2172 157.341 23.1705 157.489 23.0772C157.639 22.9839 157.756 22.8587 157.842 22.7017C157.93 22.5447 157.973 22.3699 157.973 22.1773C157.973 21.9892 157.931 21.8181 157.847 21.6641C157.764 21.5086 157.649 21.3849 157.502 21.293C157.357 21.2012 157.191 21.1553 157.005 21.1553C156.864 21.1553 156.733 21.1834 156.611 21.2397C156.49 21.2945 156.383 21.3701 156.291 21.4663C156.201 21.5626 156.13 21.673 156.078 21.7974C156.026 21.9204 156 22.05 156 22.1862C156 22.367 156.043 22.5358 156.127 22.6928C156.213 22.8498 156.33 22.9765 156.478 23.0728C156.628 23.1691 156.797 23.2172 156.987 23.2172Z" fill="white"/>
<path d="M99.6849 31.3389V31.0278L100.853 29.749C100.99 29.5992 101.103 29.469 101.192 29.3584C101.281 29.2467 101.346 29.1418 101.389 29.0439C101.433 28.9448 101.454 28.8411 101.454 28.7328C101.454 28.6084 101.425 28.5007 101.365 28.4097C101.306 28.3187 101.225 28.2484 101.123 28.1988C101.02 28.1493 100.905 28.1245 100.777 28.1245C100.641 28.1245 100.522 28.1528 100.421 28.2092C100.321 28.2645 100.243 28.3423 100.188 28.4425C100.134 28.5427 100.107 28.6603 100.107 28.795H99.6987C99.6987 28.5877 99.7465 28.4056 99.8421 28.249C99.9377 28.0923 100.068 27.9701 100.233 27.8826C100.399 27.795 100.585 27.7513 100.791 27.7513C100.998 27.7513 101.182 27.795 101.342 27.8826C101.502 27.9701 101.628 28.0882 101.719 28.2369C101.81 28.3855 101.855 28.5508 101.855 28.7328C101.855 28.863 101.832 28.9903 101.785 29.1148C101.738 29.238 101.658 29.3757 101.543 29.5278C101.429 29.6787 101.27 29.863 101.067 30.0808L100.272 30.931V30.9587H101.918V31.3389H99.6849ZM103.786 31.3873C103.525 31.3873 103.304 31.3164 103.12 31.1747C102.937 31.0318 102.797 30.825 102.7 30.5543C102.604 30.2824 102.555 29.9541 102.555 29.5693C102.555 29.1868 102.604 28.8601 102.7 28.5894C102.798 28.3175 102.939 28.1101 103.122 27.9673C103.306 27.8233 103.528 27.7513 103.786 27.7513C104.044 27.7513 104.264 27.8233 104.448 27.9673C104.632 28.1101 104.773 28.3175 104.869 28.5894C104.967 28.8601 105.016 29.1868 105.016 29.5693C105.016 29.9541 104.968 30.2824 104.871 30.5543C104.774 30.825 104.634 31.0318 104.451 31.1747C104.268 31.3164 104.046 31.3873 103.786 31.3873ZM103.786 31.0071C104.044 31.0071 104.244 30.8826 104.387 30.6338C104.53 30.3849 104.601 30.0301 104.601 29.5693C104.601 29.2628 104.569 29.0018 104.503 28.7864C104.438 28.571 104.345 28.4068 104.223 28.2939C104.102 28.181 103.956 28.1245 103.786 28.1245C103.53 28.1245 103.33 28.2507 103.186 28.503C103.042 28.7541 102.97 29.1096 102.97 29.5693C102.97 29.8757 103.002 30.1361 103.067 30.3504C103.131 30.5647 103.224 30.7277 103.345 30.8394C103.467 30.9512 103.614 31.0071 103.786 31.0071ZM105.673 31.3389V31.0278L106.841 29.749C106.978 29.5992 107.091 29.469 107.18 29.3584C107.269 29.2467 107.334 29.1418 107.377 29.0439C107.421 28.9448 107.442 28.8411 107.442 28.7328C107.442 28.6084 107.413 28.5007 107.353 28.4097C107.294 28.3187 107.213 28.2484 107.111 28.1988C107.008 28.1493 106.893 28.1245 106.765 28.1245C106.629 28.1245 106.51 28.1528 106.409 28.2092C106.309 28.2645 106.231 28.3423 106.176 28.4425C106.122 28.5427 106.095 28.6603 106.095 28.795H105.687C105.687 28.5877 105.734 28.4056 105.83 28.249C105.926 28.0923 106.056 27.9701 106.221 27.8826C106.387 27.795 106.573 27.7513 106.779 27.7513C106.986 27.7513 107.17 27.795 107.33 27.8826C107.49 27.9701 107.616 28.0882 107.707 28.2369C107.798 28.3855 107.843 28.5508 107.843 28.7328C107.843 28.863 107.82 28.9903 107.773 29.1148C107.726 29.238 107.646 29.3757 107.531 29.5278C107.417 29.6787 107.258 29.863 107.055 30.0808L106.26 30.931V30.9587H107.906V31.3389H105.673ZM108.619 31.3389V31.0278L109.788 29.749C109.925 29.5992 110.038 29.469 110.126 29.3584C110.215 29.2467 110.281 29.1418 110.323 29.0439C110.367 28.9448 110.389 28.8411 110.389 28.7328C110.389 28.6084 110.359 28.5007 110.299 28.4097C110.24 28.3187 110.16 28.2484 110.057 28.1988C109.955 28.1493 109.839 28.1245 109.712 28.1245C109.576 28.1245 109.457 28.1528 109.356 28.2092C109.255 28.2645 109.178 28.3423 109.122 28.4425C109.068 28.5427 109.041 28.6603 109.041 28.795H108.633C108.633 28.5877 108.681 28.4056 108.777 28.249C108.872 28.0923 109.002 27.9701 109.167 27.8826C109.333 27.795 109.519 27.7513 109.725 27.7513C109.933 27.7513 110.116 27.795 110.277 27.8826C110.437 27.9701 110.562 28.0882 110.653 28.2369C110.744 28.3855 110.79 28.5508 110.79 28.7328C110.79 28.863 110.766 28.9903 110.719 29.1148C110.673 29.238 110.592 29.3757 110.477 29.5278C110.363 29.6787 110.205 29.863 110.002 30.0808L109.207 30.931V30.9587H110.852V31.3389H108.619ZM113.093 29.3792V29.7593H111.545V29.3792H113.093ZM114.959 31.3873C114.698 31.3873 114.476 31.3164 114.293 31.1747C114.11 31.0318 113.97 30.825 113.873 30.5543C113.777 30.2824 113.728 29.9541 113.728 29.5693C113.728 29.1868 113.777 28.8601 113.873 28.5894C113.971 28.3175 114.112 28.1101 114.295 27.9673C114.479 27.8233 114.701 27.7513 114.959 27.7513C115.217 27.7513 115.437 27.8233 115.62 27.9673C115.805 28.1101 115.945 28.3175 116.042 28.5894C116.14 28.8601 116.189 29.1868 116.189 29.5693C116.189 29.9541 116.141 30.2824 116.044 30.5543C115.947 30.825 115.807 31.0318 115.624 31.1747C115.441 31.3164 115.219 31.3873 114.959 31.3873ZM114.959 31.0071C115.217 31.0071 115.417 30.8826 115.56 30.6338C115.703 30.3849 115.774 30.0301 115.774 29.5693C115.774 29.2628 115.741 29.0018 115.676 28.7864C115.611 28.571 115.518 28.4068 115.396 28.2939C115.275 28.181 115.129 28.1245 114.959 28.1245C114.703 28.1245 114.503 28.2507 114.359 28.503C114.215 28.7541 114.143 29.1096 114.143 29.5693C114.143 29.8757 114.175 30.1361 114.24 30.3504C114.304 30.5647 114.397 30.7277 114.518 30.8394C114.64 30.9512 114.787 31.0071 114.959 31.0071ZM116.846 31.3389V31.0278L118.014 29.749C118.151 29.5992 118.264 29.469 118.353 29.3584C118.441 29.2467 118.507 29.1418 118.55 29.0439C118.593 28.9448 118.615 28.8411 118.615 28.7328C118.615 28.6084 118.585 28.5007 118.525 28.4097C118.467 28.3187 118.386 28.2484 118.284 28.1988C118.181 28.1493 118.066 28.1245 117.938 28.1245C117.802 28.1245 117.683 28.1528 117.582 28.2092C117.482 28.2645 117.404 28.3423 117.349 28.4425C117.294 28.5427 117.267 28.6603 117.267 28.795H116.86C116.86 28.5877 116.907 28.4056 117.003 28.249C117.099 28.0923 117.229 27.9701 117.394 27.8826C117.559 27.795 117.745 27.7513 117.952 27.7513C118.159 27.7513 118.343 27.795 118.503 27.8826C118.663 27.9701 118.789 28.0882 118.88 28.2369C118.971 28.3855 119.016 28.5508 119.016 28.7328C119.016 28.863 118.993 28.9903 118.945 29.1148C118.899 29.238 118.819 29.3757 118.703 29.5278C118.589 29.6787 118.431 29.863 118.228 30.0808L117.433 30.931V30.9587H119.078V31.3389H116.846ZM121.32 29.3792V29.7593H119.771V29.3792H121.32ZM123.185 31.3873C122.925 31.3873 122.703 31.3164 122.52 31.1747C122.336 31.0318 122.196 30.825 122.1 30.5543C122.003 30.2824 121.955 29.9541 121.955 29.5693C121.955 29.1868 122.003 28.8601 122.1 28.5894C122.198 28.3175 122.338 28.1101 122.521 27.9673C122.706 27.8233 122.927 27.7513 123.185 27.7513C123.443 27.7513 123.664 27.8233 123.847 27.9673C124.031 28.1101 124.172 28.3175 124.268 28.5894C124.366 28.8601 124.415 29.1868 124.415 29.5693C124.415 29.9541 124.367 30.2824 124.27 30.5543C124.173 30.825 124.033 31.0318 123.85 31.1747C123.667 31.3164 123.445 31.3873 123.185 31.3873ZM123.185 31.0071C123.443 31.0071 123.643 30.8826 123.786 30.6338C123.929 30.3849 124.001 30.0301 124.001 29.5693C124.001 29.2628 123.968 29.0018 123.902 28.7864C123.838 28.571 123.744 28.4068 123.622 28.2939C123.501 28.181 123.355 28.1245 123.185 28.1245C122.929 28.1245 122.729 28.2507 122.585 28.503C122.441 28.7541 122.369 29.1096 122.369 29.5693C122.369 29.8757 122.402 30.1361 122.466 30.3504C122.531 30.5647 122.623 30.7277 122.744 30.8394C122.866 30.9512 123.013 31.0071 123.185 31.0071ZM126.178 31.3873C125.975 31.3873 125.793 31.3469 125.63 31.2663C125.468 31.1856 125.338 31.075 125.24 30.9345C125.142 30.7939 125.088 30.6338 125.079 30.4541H125.494C125.51 30.6142 125.582 30.7467 125.711 30.8515C125.842 30.9552 125.997 31.0071 126.178 31.0071C126.323 31.0071 126.452 30.9731 126.565 30.9051C126.679 30.8371 126.769 30.7438 126.833 30.6251C126.899 30.5053 126.932 30.37 126.932 30.219C126.932 30.0647 126.898 29.927 126.83 29.806C126.763 29.6839 126.671 29.5877 126.553 29.5174C126.436 29.4471 126.301 29.4114 126.15 29.4103C126.042 29.4091 125.931 29.4258 125.817 29.4604C125.703 29.4938 125.609 29.537 125.535 29.59L125.134 29.5416L125.349 27.7996H127.187V28.1798H125.708L125.584 29.2236H125.604C125.677 29.166 125.768 29.1182 125.877 29.0802C125.987 29.0422 126.101 29.0232 126.22 29.0232C126.436 29.0232 126.629 29.075 126.798 29.1787C126.969 29.2812 127.103 29.4218 127.199 29.6004C127.297 29.7789 127.346 29.9829 127.346 30.2121C127.346 30.4379 127.296 30.6395 127.194 30.817C127.094 30.9932 126.956 31.1326 126.779 31.2352C126.603 31.3366 126.403 31.3873 126.178 31.3873Z" fill="#6A6A6A"/>
<path d="M91.7168 20.7229C91.3463 20.4448 91.3463 19.889 91.7168 19.6109L96.1901 16.2535L96.1901 24.0803L91.7168 20.7229Z" fill="#252525"/>
<defs>
<clipPath id="clip0_2001_78">
<rect width="173.801" height="77.1678" fill="white" transform="translate(0.599312 15.5581)"/>
</clipPath>
<clipPath id="clip1_2001_78">
<rect width="173.801" height="50.75" fill="white" transform="matrix(1 0 0 -1 0.599312 144.171)"/>
</clipPath>
</defs>
</svg>
