<svg width="61" height="33" viewBox="0 0 61 33" fill="none" xmlns="http://www.w3.org/2000/svg">
<circle cx="11.1529" cy="11.1529" r="11.1529" transform="matrix(-1 0 0 1 22.3706 5.33179)" fill="#D9D9D9"/>
<path fill-rule="evenodd" clip-rule="evenodd" d="M16.7941 26.1456C13.4605 24.2172 11.2176 20.6129 11.2176 16.4847C11.2176 12.3566 13.4605 8.75224 16.7941 6.82385C15.1537 5.8749 13.2491 5.33179 11.2176 5.33179C5.05805 5.33179 0.0647068 10.3251 0.0647068 16.4847C0.0647068 22.6443 5.05805 27.6377 11.2176 27.6377C13.2491 27.6377 15.1537 27.0946 16.7941 26.1456Z" fill="#404040"/>
<path d="M30.9465 21.4846V13.3734H32.1505V14.6408H32.2561C32.4251 14.2077 32.698 13.8715 33.0747 13.6321C33.4514 13.3892 33.9037 13.2678 34.4318 13.2678C34.9669 13.2678 35.4123 13.3892 35.7678 13.6321C36.1269 13.8715 36.4068 14.2077 36.6075 14.6408H36.692C36.8997 14.2218 37.2112 13.8891 37.6267 13.6427C38.0421 13.3928 38.5402 13.2678 39.1211 13.2678C39.8463 13.2678 40.4395 13.4948 40.9007 13.949C41.3619 14.3996 41.5925 15.102 41.5925 16.056V21.4846H40.3463V16.056C40.3463 15.4575 40.1825 15.0298 39.8551 14.7728C39.5277 14.5158 39.1422 14.3873 38.6987 14.3873C38.1283 14.3873 37.6865 14.5598 37.3732 14.9048C37.0599 15.2463 36.9032 15.6793 36.9032 16.2039V21.4846H35.6358V15.9293C35.6358 15.4681 35.4862 15.0967 35.187 14.815C34.8877 14.5299 34.5022 14.3873 34.0305 14.3873C33.7066 14.3873 33.4038 14.4735 33.1222 14.646C32.8441 14.8186 32.6188 15.0579 32.4463 15.3642C32.2773 15.667 32.1928 16.0173 32.1928 16.4151V21.4846H30.9465ZM46.258 21.6747C45.7441 21.6747 45.2776 21.5779 44.8587 21.3843C44.4397 21.1871 44.107 20.9037 43.8606 20.5341C43.6142 20.1609 43.4909 19.7103 43.4909 19.1822C43.4909 18.7175 43.5825 18.3408 43.7655 18.0521C43.9486 17.7599 44.1933 17.5311 44.4996 17.3656C44.8058 17.2002 45.1438 17.077 45.5135 16.996C45.8866 16.9115 46.2616 16.8446 46.6383 16.7953C47.1311 16.7319 47.5307 16.6844 47.837 16.6527C48.1468 16.6175 48.3721 16.5594 48.5129 16.4785C48.6573 16.3975 48.7294 16.2567 48.7294 16.056V16.0138C48.7294 15.4927 48.5869 15.0879 48.3017 14.7992C48.0201 14.5105 47.5923 14.3662 47.0185 14.3662C46.4235 14.3662 45.957 14.4964 45.6191 14.7569C45.2811 15.0175 45.0435 15.2956 44.9062 15.5913L43.7233 15.1688C43.9345 14.676 44.2162 14.2922 44.5682 14.0176C44.9238 13.7395 45.311 13.5459 45.73 13.4368C46.1524 13.3241 46.5679 13.2678 46.9762 13.2678C47.2367 13.2678 47.536 13.2995 47.874 13.3628C48.2154 13.4227 48.5446 13.5477 48.8615 13.7378C49.1818 13.9279 49.4476 14.2148 49.6589 14.5985C49.8701 14.9823 49.9757 15.4963 49.9757 16.1405V21.4846H48.7294V20.3862H48.6661C48.5816 20.5622 48.4408 20.7506 48.2436 20.9513C48.0465 21.1519 47.7842 21.3227 47.4568 21.4635C47.1294 21.6043 46.7298 21.6747 46.258 21.6747ZM46.4482 20.5552C46.941 20.5552 47.3564 20.4584 47.6944 20.2648C48.0359 20.0711 48.2929 19.8212 48.4654 19.5149C48.6414 19.2086 48.7294 18.8865 48.7294 18.5485V17.4079C48.6766 17.4713 48.5605 17.5293 48.3809 17.5821C48.2049 17.6314 48.0007 17.6754 47.7683 17.7142C47.5395 17.7494 47.316 17.7811 47.0977 17.8092C46.8829 17.8339 46.7087 17.855 46.5749 17.8726C46.251 17.9148 45.9482 17.9835 45.6666 18.0785C45.3885 18.1701 45.1632 18.3091 44.9907 18.4957C44.8217 18.6788 44.7372 18.9287 44.7372 19.2456C44.7372 19.6786 44.8974 20.006 45.2177 20.2278C45.5416 20.4461 45.9518 20.5552 46.4482 20.5552ZM55.5244 24.6953C54.9224 24.6953 54.4049 24.6179 53.9719 24.463C53.5389 24.3116 53.178 24.1109 52.8893 23.861C52.6042 23.6145 52.3771 23.3505 52.2081 23.0688L53.2009 22.3718C53.3136 22.5196 53.4561 22.6886 53.6287 22.8787C53.8012 23.0724 54.037 23.2396 54.3363 23.3804C54.639 23.5247 55.0351 23.5969 55.5244 23.5969C56.1793 23.5969 56.7197 23.4385 57.1456 23.1217C57.5716 22.8048 57.7846 22.3084 57.7846 21.6325V19.9849H57.679C57.5875 20.1327 57.4572 20.3158 57.2882 20.5341C57.1227 20.7488 56.8834 20.9407 56.57 21.1097C56.2602 21.2751 55.8413 21.3579 55.3132 21.3579C54.6584 21.3579 54.0705 21.203 53.5494 20.8932C53.0319 20.5834 52.6218 20.1327 52.319 19.5413C52.0198 18.9499 51.8702 18.2317 51.8702 17.3868C51.8702 16.5559 52.0163 15.8325 52.3085 15.2164C52.6007 14.5968 53.0073 14.118 53.5283 13.78C54.0494 13.4385 54.6514 13.2678 55.3343 13.2678C55.8624 13.2678 56.2814 13.3558 56.5912 13.5318C56.9045 13.7043 57.1439 13.9015 57.3093 14.1233C57.4783 14.3415 57.6086 14.5211 57.7001 14.6619H57.8268V13.3734H59.0309V21.717C59.0309 22.414 58.8724 22.9808 58.5556 23.4174C58.2423 23.8574 57.8198 24.1796 57.2882 24.3838C56.7601 24.5915 56.1722 24.6953 55.5244 24.6953ZM55.4822 20.2384C55.9821 20.2384 56.4046 20.1239 56.7496 19.8951C57.0946 19.6663 57.3569 19.3371 57.5364 18.9076C57.716 18.4781 57.8057 17.9641 57.8057 17.3656C57.8057 16.7812 57.7177 16.2655 57.5417 15.8184C57.3657 15.3713 57.1051 15.021 56.7601 14.7675C56.4151 14.514 55.9891 14.3873 55.4822 14.3873C54.9541 14.3873 54.5141 14.5211 54.162 14.7886C53.8135 15.0562 53.5512 15.4153 53.3752 15.8659C53.2027 16.3165 53.1164 16.8164 53.1164 17.3656C53.1164 17.9289 53.2044 18.4271 53.3805 18.8601C53.56 19.2896 53.824 19.6276 54.1726 19.874C54.5246 20.1169 54.9612 20.2384 55.4822 20.2384Z" fill="black"/>
</svg>
