<svg width="19" height="8" viewBox="0 0 19 8" fill="none" xmlns="http://www.w3.org/2000/svg">
<path d="M14.5605 0.193848C14.4345 0.193881 14.3114 0.231487 14.2069 0.301859C14.1024 0.372231 14.0212 0.472172 13.9738 0.588902C13.9264 0.705633 13.9149 0.833851 13.9407 0.957163C13.9666 1.08048 14.0286 1.19328 14.1189 1.28115L16.2044 3.3667H1.26668C1.18276 3.36551 1.09943 3.38102 1.02155 3.41231C0.943675 3.44361 0.872792 3.49007 0.813024 3.549C0.753257 3.60793 0.705797 3.67814 0.673404 3.75557C0.64101 3.833 0.624329 3.9161 0.624329 4.00003C0.624329 4.08397 0.64101 4.16706 0.673404 4.24449C0.705797 4.32192 0.753257 4.39214 0.813024 4.45107C0.872792 4.51 0.943675 4.55646 1.02155 4.58775C1.09943 4.61905 1.18276 4.63455 1.26668 4.63337H16.2044L14.1189 6.71891C14.0581 6.77727 14.0096 6.84717 13.9762 6.92452C13.9427 7.00187 13.9251 7.08511 13.9242 7.16937C13.9233 7.25363 13.9393 7.33721 13.9712 7.41522C14.003 7.49324 14.0501 7.56411 14.1097 7.62369C14.1693 7.68328 14.2401 7.73037 14.3182 7.76222C14.3962 7.79407 14.4798 7.81004 14.564 7.80918C14.6483 7.80832 14.7315 7.79066 14.8089 7.75723C14.8862 7.7238 14.9561 7.67527 15.0145 7.61449L18.1255 4.50348C18.2028 4.44454 18.2656 4.36858 18.3088 4.28148C18.3521 4.19439 18.3747 4.09851 18.3749 4.00126C18.3752 3.90402 18.353 3.80802 18.3102 3.72072C18.2674 3.63341 18.205 3.55714 18.1279 3.49782C18.1267 3.49699 18.1255 3.49617 18.1242 3.49535L15.0145 0.385579C14.9554 0.32491 14.8849 0.276685 14.8069 0.243753C14.7289 0.210822 14.6451 0.193853 14.5605 0.193848Z" fill="black"/>
</svg>
