<svg width="19" height="20" viewBox="0 0 19 20" fill="none" xmlns="http://www.w3.org/2000/svg">
<path d="M14.5605 5.88281C14.4345 5.88285 14.3114 5.92045 14.2069 5.99082C14.1024 6.0612 14.0212 6.16114 13.9738 6.27787C13.9264 6.3946 13.9149 6.52282 13.9407 6.64613C13.9666 6.76944 14.0286 6.88224 14.1189 6.97012L16.2044 9.05566H1.26668C1.18276 9.05448 1.09943 9.06998 1.02155 9.10128C0.943675 9.13257 0.872792 9.17903 0.813024 9.23796C0.753257 9.29689 0.705797 9.36711 0.673404 9.44454C0.64101 9.52197 0.624329 9.60506 0.624329 9.689C0.624329 9.77293 0.64101 9.85603 0.673404 9.93346C0.705797 10.0109 0.753257 10.0811 0.813024 10.14C0.872792 10.199 0.943675 10.2454 1.02155 10.2767C1.09943 10.308 1.18276 10.3235 1.26668 10.3223H16.2044L14.1189 12.4079C14.0581 12.4662 14.0096 12.5361 13.9762 12.6135C13.9427 12.6908 13.9251 12.7741 13.9242 12.8583C13.9233 12.9426 13.9393 13.0262 13.9712 13.1042C14.003 13.1822 14.0501 13.2531 14.1097 13.3127C14.1693 13.3722 14.2401 13.4193 14.3182 13.4512C14.3962 13.483 14.4798 13.499 14.564 13.4981C14.6483 13.4973 14.7315 13.4796 14.8089 13.4462C14.8862 13.4128 14.9561 13.3642 15.0145 13.3035L18.1255 10.1924C18.2028 10.1335 18.2656 10.0575 18.3088 9.97045C18.3521 9.88336 18.3747 9.78747 18.3749 9.69023C18.3752 9.59298 18.353 9.49699 18.3102 9.40968C18.2674 9.32238 18.205 9.24611 18.1279 9.18678C18.1267 9.18595 18.1255 9.18513 18.1242 9.18431L15.0145 6.07454C14.9554 6.01387 14.8849 5.96565 14.8069 5.93272C14.7289 5.89979 14.6451 5.88282 14.5605 5.88281Z" fill="white"/>
</svg>
